<?xml version="1.0"?><svg baseprofile="tiny" fill="#ececec" height="852" stroke="black" stroke-linecap="round" stroke-linejoin="round" stroke-width=".1" version="1.2" viewbox="0 0 1000 852" width="1000" xmlns="http://www.w3.org/2000/svg">
 <g id="combined">
  <path d="M623.97 761.32l0.15 4.81-1.72 1.52-2.24-2.18-6.74 4.7-2.29 3.43-2.79 2.82-5.91-1.52-0.22-0.79-57.27-0.47-1.87 3.19-6.67 9.49-3.59 3.97-7.85 6.12-7.2-2.98-26.42 0.13-2.39-149.56 80.67 1.41 22.5 66.9 4.23 9.11 3.94 6.57 23.68 33.33z" id="11100" name="Cherry Hill">
  </path>
  <path d="M264.54 664.18l0.68-0.05-23.15-35.8 3.18-0.75 61.76-1.33 62.94-0.85 45.34 0.67 0.34 17.58 73.32 0.35 2.34 149.56-0.76 2.92 0.05 11.7-0.55 0.55-7.98 0.04 0 0.91-22.06 0.05-4.55-0.73-7.43 2.42-0.32 1.57-29.19-33.74-0.56-5.7-14.42-0.1-1.18-1.32-9.72-0.26-121.68-0.43-1.5-69.76-3.19 4.1-10.96 0.06 2.1-6.01 2.72-1.36 9.3-12.45 7.82-1.76-12.69-20.08z" id="11101" name="Lakeview">
  </path>
  <path d="M623.97 761.32l-23.68-33.33-3.94-6.57-4.23-9.11-22.5-66.9-30.1-89.85 94.75 0.61 32.69-0.27 10.26-0.79 15.67-0.08-0.15 11.56-1.41 10.13 1.69 4.25 8.31 9.55-8.96 0.46-0.65 20.54 0.6 9.84-0.15 6.09 5.84-0.1 1.4 2.06 1.7 16.22 2.88-0.09 3.55 4.84 1 21.13-3.11 0 2.83 20.9-20.35-2.44 0.3 11.41-4.54 5.48-3.17 0.09-1.21 1.94 0.03 11.59-1.03 4.67-4-4.43 3.53 0.06-0.01-6.37-5.99 8.62-0.01 3.81-4.28-4.35-3.52-4.99-3.63-8.41-1.21-6 0.04-9.16 2.43-18.68-0.76-3.82-2.87 4.03-2.39 5.61-3.54 4.33-1.65 4.02 0.13 5.18-0.87 6.8-1.23 0.01-2.73 21-1.99 0.02-8.12 7.4-2.67 3.81-2.25 5.57-1.68 10.16-5.15 7.71 0.1 4.24z" id="11102" name="Hillcrest">
  </path>
  <path d="M569.62 645.41l-80.67-1.41-73.32-0.35-0.34-17.58-0.2-9.88-0.64-48.29-0.82-13.85 125.89 1.51 30.1 89.85z" id="11103" name="Lakeridge">
  </path>
  <path d="M634.27 556.17l-94.75-0.61-25.26-74.4 17.6 0.28 57.56 1.03 43.79 0.71 20.89-0.52 32.52-0.56 14.46-0.03-1.55 5.74 1.14 4.49 1.58-0.06 0.28 8.16-0.75 1.91-11.41 12.1 0.35 36.24 1.84-0.03 0.33 4.4-15.67 0.09-10.32 0.79-32.63 0.27z" id="11104" name="Sharon">
  </path>
  <path d="M539.52 555.56l-125.89-1.51-1.36-74.05 101.99 1.16 25.26 74.4z" id="11105" name="Stonewood">
  </path>
  <path d="M539.52 555.56l-25.26-74.4-101.99-1.16-73.31-1.09-36.07 0.56-47.55 0.51-61.95 0.66-2.14-16.19-0.2-57.33 74.52-0.26 73.38-0.09 150.6 0.52 19.15 57.02 5.56 16.85 17.6 0.28-17.6-0.28 25.26 74.4z" id="11106" name="Orem Park">
  </path>
  <path d="M707.09 407.93l-44.59 1.94-7.01 0.04-23.69-0.55-0.39-0.41-72.49-0.98-0.77-37.58-0.23-37.43 36.59 0.39 36.18-0.36 44.57-0.24 11.17 0.02 16.76-0.37 0.01 0.66 18.02 0.03-2.16 7.1-1.63 10.15-1.65 4.54-5.05 7.17-1.83 3.37-0.56 4.79 0.68 4.14 2.24 7.57-0.27 3.9-2.27 8.61-0.37 9.23-1.26 4.27z" id="11107" name="Cascade">
  </path>
  <path d="M489.55 407.29l-150.6-0.52-73.38 0.09-74.52 0.26-0.23-67.79 1.49-3.41-0.18-3.19 161.86 2.34 0.66 20.79 15.1-0.04 0.16-20.58 95.35-1.83 24.29 73.88z" id="11108" name="Suncrest">
  </path>
  <path d="M557.92 332.96l0.23 37.43 0.77 37.58-69.37-0.68-24.29-73.88-24.84-73.82 24.7-0.35 28.71-0.13 63.08-0.18 1.01 74.03z" id="11109" name="Sharon Park">
  </path>
  <path d="M465.26 333.41l-95.35 1.83-0.16 20.58-15.1 0.04-0.66-20.79-161.86-2.34-10.67-73.9 38.5 0.69 31.65 0.23 122.99-2.25 28.6-0.2 37.22 2.29 24.84 73.82z" id="11110" name="Geneva Heights">
  </path>
  <path d="M721.22 333.09l-18.02-0.03-0.01-0.66-16.76 0.37-11.17-0.02-44.57 0.24-36.18 0.36-36.59-0.39-1.01-74.03 94.49-0.22 87.71-0.02 9.97-1.1 11.49-5.57 6.4-4.22 5.96-2.01 9.73 0.2 5.88 4.79-0.54 1.56-1.19 9.15 0.41 9.92 3.72 22.53-15.92 0.02-0.3-17.31-11.53 0.02-7.38-15.52-15.22 31.54-1.67 2.98-2.95 2.2-2.57 3.87-1.91 4.64-1.53 5.45-3.88 8.89-2.92 4.8-1.94 7.57z" id="11111" name="Orchard">
  </path>
  <path d="M556.91 258.93l-63.08 0.18-28.71 0.13-24.7 0.35-8.46-25.58-16.46-48.96 41.75 0.17 7.16-0.17 54.82 0.04 17.77-0.09 18.89-0.04 0.26 7.04 0.76 66.93z" id="11112" name="Orem North">
  </path>
  <path d="M772.93 245.79l-5.96 2.01-6.4 4.22-11.49 5.57-9.97 1.1-87.71 0.02-94.49 0.22-0.76-66.93-0.26-7.04-18.89 0.04 32.48-0.06 28.98-0.25-0.16-27.69 0.51-2.58 4.29-5.05 12.51 12.21 2.97 2.35 4.1 0.72 6.49-0.01-0.07 19.93 17.94-0.04 18.39-18.4 16.93 0.13 0.84 4.17 4.82 1.82 5.32 3.32 3.32 1.5 6.31 0.49 3.5 2.66 0 4 47.47 0.39 18.44 0.03 1.18 40.29 9.06-0.02-0.87 5.77-7.72 7.56-1.1 7.55z" id="11113" name="Canyon View">
  </path>
  <path d="M440.42 259.59l-37.22-2.29-28.6 0.2-122.99 2.25-31.65-0.23-38.5-0.69-20.86-144.42 64.58-0.57 1.89 9.43 18.77 30.37 2.64 5.68 2.88 7.34 1.77 6.94 2.74 13.24 6.34-0.25 27.33-0.2 20.14-0.03-0.59-35.74 25.9-0.63 0.19 5.29 14.51-0.12 0.23-6.16 12.78-0.07 8.66 0.35 0.03 1.07 16.51-0.19 5.35-1.28 10.1-0.1 12.15 36.27 16.46 48.96 8.46 25.58z" id="11114" name="Timpview">
  </path>
  <path d="M537 185l-17.77 0.09-54.82-0.04-7.16 0.17-41.75-0.17-12.15-36.27-12.26-36.62 30.46-0.38 8.28 0.05 28.77-0.36 15.93-0.45 52.09-0.04 24.61 0.1 44.38 0.09 3.98 0.13 4.44 1.42 11.54 4.48 9.56 7.33 3.19 3 0.84 3.08 0.01 34.03-6.49 0.01-4.1-0.72-2.97-2.35-12.51-12.21-4.29 5.05-0.51 2.58 0.16 27.69-28.98 0.25-32.48 0.06z" id="11115" name="Windsor">
  </path>
  <path d="M788.54 250.78l-5.88-4.79-9.73-0.2 1.1-7.55 7.72-7.56 0.87-5.77-9.06 0.02-1.18-40.29-18.44-0.03-47.47-0.39 0-4-3.5-2.66-6.31-0.49-3.32-1.5-5.32-3.32-4.82-1.82-0.84-4.17-16.93-0.13-18.39 18.4-17.94 0.04 0.07-19.93-0.01-34.03 3.44-0.19 7.33-2.28 4.53-3.92 8.83-9.77 2.88-3.9 7.96-3.7 0.09 4.88 36.66 0.05 0.38 36.29-4.81-0.28-0.04 5.46 21.75 0.18 0.04-5.46 90 0.46-0.05-40.29 73.89-0.12-0.06-36.4 72.52-0.12 0.05 28.32-8.03-10.23-4.74-2.97-4.02-0.11-9.23 1.82-6.75 0.61-7.64-0.86-5.16 1.29-3.21 2.83-1.49 2.86-3.99 11.87-4.06 10.13-4.85 10.01-2.42 3.94-4.95 4.83-8.41 5.01 0.01 1.74-29.63 17.19 0.82 58.43-44.01 1.77-3.93 5.95-8.05 18.38-2.27 6.47z" id="11116" name="Unclassified">
  </path>
  <path d="M403.35 148.78l-10.1 0.1-5.35 1.28-16.51 0.19-0.03-1.07-8.66-0.35-12.78 0.07-0.23 6.16-14.51 0.12-0.19-5.29-25.9 0.63 0.59 35.74-20.14 0.03-27.33 0.2-6.34 0.25-2.74-13.24-1.77-6.94-2.88-7.34-2.64-5.68-18.77-30.37-1.89-9.43 68.68-0.6-14.01-34.36 17.85-0.08-0.78-38.79 51.21-0.35 36.61 58.58 3.69 6.92 2.66 7 12.26 36.62z" id="11117" name="Aspen">
  </path>
  <path d="M307.01 626.25l-61.76 1.33-3.18 0.75 23.15 35.8-0.68 0.05-1.73 0.13-93.62 0.07-0.02-9.63-8.87 0.01-4.96-6.29-8.53-10.15-8.19-10.66-4.71-7.36 0-1.93-12.64 0.14 1.68-3.37-0.33-1.38-4.09-3.75 3.8-0.07-16.84-6.37-1.55-0.89-12.99-10.78-6.13 0.1-24.21-26.47-15.16-15.5 1.21-1.1 7.68-1.72 4.59 0.8 16.41 7.12 2.56 3.29 5.22-5.1 1.45-3.46-3.83-2.86 0.45-3.03 3.32-3.81 5.35-2.48 1.36-1.79 5.34-1.32-3.65-12.5-7.43 1.75-0.64-3.2 0.97-2.74 2.43 1.94 1.35-1.74 6.67-4.32 1.65-2.73 0.42-3.45-0.94-6.01 0.77-1.37-1.07-2.84 1.53-0.62-0.55-4.95 3.21-3.52-1.25-2.5 0.89-4.03 2.07-1.83 3.29 0.02 8.4 1.82 5.01 0.52 0.16 10.05 5.46 0.28 0.05 3.36 1.92-0.02-0.04-3.34 4.33-0.02 3.94 2.33 2.83 4.93 7.66-1.28 3.39-2.57 3.67 1.05 4.45-0.05 0.17 13.23-0.76 2.39 0.23 6.31-0.14 30.89 45.45 1.9-6.5-12.43-2.49-7.02-4.54-0.01-0.23 5.49-12.47-0.09-0.06-20.07 16.17-0.04-0.41-36.24-47.78 0.45-0.25-19.98-8.08 0.1-13.56-13.62-3.31 0.05-0.37-18.87 51.7-0.22 20.97 35.24 2.14 16.19 61.95-0.66 0.25 41.45 0.71 11.33 2.94 12.71 4.48 12.87 3.96 8.06 20.26 31.03 17.52 27.26 1.55 1.56z" id="11118" name="Sunset Heights West">
  </path>
  <path d="M629.16 130.61l-0.84-3.08-3.19-3-9.56-7.33-11.54-4.48-4.44-1.42-3.98-0.13-44.38-0.09-2.73-3.64-4.49-4.68-6.62-6.04-5.07-2.33-4.48-2.92-3.7-4.49-4.7-11.9-3.9-5.27-3.53-2.41 12.32-9.85 2.5 2.39 5.76-10.04 4.55 0.41 0.63-7.84-7.99-0.03-0.01-3.69 117.46 0.02 0.01 6.53 16.05 18.22 0.84 43.33-7.96 3.7-2.88 3.9-8.83 9.77-4.53 3.92-7.33 2.28-3.44 0.19z" id="11119" name="Heatheridge">
  </path>
  <path d="M686.62 482.1l-32.52 0.56-20.89 0.52-43.79-0.71-57.56-1.03-17.6-0.28-5.56-16.85-19.15-57.02 69.37 0.68 72.49 0.98 0.39 0.41 23.69 0.55 7.01-0.04 44.59-1.94-2.61 3.96-2.2 0.29-4.86 2.65-2.89 6.09 1.4 2.1-1.47 4.48-3.79 4.06-1.38 3.73-0.3 6.31-0.86 2.22-2.35 2.34 0.82 1.32-2.07 7.23 2.19-0.1-0.75 9.42-2.56 6.24-0.26 6.71 2.46-0.1 1.01 5.22z" id="11120" name="Orem">
  </path>
  <path d="M551.23 111.08l-24.61-0.1-52.09 0.04-15.93 0.45-28.77 0.36-8.28-0.05-30.46 0.38-2.66-7-3.69-6.92-36.61-58.58 128.52-0.89 53.12-0.02 0.01 3.69 7.99 0.03-0.63 7.84-4.55-0.41-5.76 10.04-2.5-2.39-12.32 9.85 3.53 2.41 3.9 5.27 4.7 11.9 3.7 4.49 4.48 2.92 5.07 2.33 6.62 6.04 4.49 4.68 2.73 3.64z" id="11121" name="Northridge">
  </path>
  <path d="M415.29 626.07l-45.34-0.67-62.94 0.85-1.55-1.56-17.52-27.26-20.26-31.03-3.96-8.06-4.48-12.87-2.94-12.71-0.71-11.33-0.25-41.45 47.55-0.51 36.07-0.56 73.31 1.09 1.36 74.05 0.82 13.85 0.64 48.29 0.2 9.88z" id="11122" name="Sunset Heights East">
  </path>
 </g>
 <g id="points">
  <circle class="40.25800792558366|-111.75101884978865" cx="60.61" cy="800.1" id="0">
  </circle>
  <circle class="40.26057752909206|-111.66794832558186" cx="696.97" cy="774.3" id="1">
  </circle>
  <circle class="40.26571673610886|-111.6995942395654" cx="454.55" cy="722.71" id="2">
  </circle>
  <circle class="40.27085594312565|-111.727284414301" cx="242.42" cy="671.11" id="3">
  </circle>
  <circle class="40.27599515014245|-111.75101884978865" cx="60.61" cy="619.51" id="4">
  </circle>
  <circle class="40.27856475365085|-111.65212536859009" cx="818.18" cy="593.71" id="5">
  </circle>
  <circle class="40.283703960667644|-111.66794832558186" cx="696.97" cy="542.11" id="6">
  </circle>
  <circle class="40.28884316768444|-111.67981554332569" cx="606.06" cy="490.5" id="7">
  </circle>
  <circle class="40.29398237470124|-111.68772702182157" cx="545.45" cy="438.88" id="8">
  </circle>
  <circle class="40.29912158171803|-111.69168276106952" cx="515.15" cy="387.27" id="9">
  </circle>
  <circle class="40.30426078873483|-111.69168276106952" cx="515.15" cy="335.65" id="10">
  </circle>
  <circle class="40.309399995751626|-111.68772702182157" cx="545.45" cy="284.02" id="11">
  </circle>
  <circle class="40.31453920276842|-111.67981554332569" cx="606.06" cy="232.39" id="12">
  </circle>
  <circle class="40.31967840978522|-111.66794832558186" cx="696.97" cy="180.76" id="13">
  </circle>
  <circle class="40.324817616802015|-111.65212536859009" cx="818.18" cy="129.12" id="14">
  </circle>
  <circle class="40.33252642732721|-111.75101884978865" cx="60.61" cy="51.66" id="15">
  </circle>
 </g>
 <g id="label_points">
  <circle class="Cherry Hill" cx="540.42" cy="712.76" id="11100">
  </circle>
  <circle class="Lakeview" cx="377.67" cy="698.67" id="11101">
  </circle>
  <circle class="Hillcrest" cx="623.15" cy="626.49" id="11102">
  </circle>
  <circle class="Lakeridge" cx="484.95" cy="599.45" id="11103">
  </circle>
  <circle class="Sharon" cx="610.44" cy="519.41" id="11104">
  </circle>
  <circle class="Stonewood" cx="470.16" cy="517.7" id="11105">
  </circle>
  <circle class="Orem Park" cx="346.82" cy="442.91" id="11106">
  </circle>
  <circle class="Cascade" cx="635.6" cy="371.21" id="11107">
  </circle>
  <circle class="Suncrest" cx="325.61" cy="370.72" id="11108">
  </circle>
  <circle class="Sharon Park" cx="511.58" cy="324.41" id="11109">
  </circle>
  <circle class="Geneva Heights" cx="321.51" cy="296.54" id="11110">
  </circle>
  <circle class="Orchard" cx="657.88" cy="295.78" id="11111">
  </circle>
  <circle class="Orem North" cx="491.97" cy="222.09" id="11112">
  </circle>
  <circle class="Canyon View" cx="674.7" cy="212.45" id="11113">
  </circle>
  <circle class="Timpview" cx="289.82" cy="222.72" id="11114">
  </circle>
  <circle class="Windsor" cx="509.94" cy="148.04" id="11115">
  </circle>
  <circle class="Unclassified" cx="805.63" cy="184.14" id="11116">
  </circle>
  <circle class="Aspen" cx="333.3" cy="100.21" id="11117">
  </circle>
  <circle class="Sunset Heights West" cx="192.99" cy="607.84" id="11118">
  </circle>
  <circle class="Heatheridge" cx="596.39" cy="74.98" id="11119">
  </circle>
  <circle class="Orem" cx="595.65" cy="445.52" id="11120">
  </circle>
  <circle class="Northridge" cx="449.63" cy="75.27" id="11121">
  </circle>
  <circle class="Sunset Heights East" cx="340.78" cy="552.37" id="11122">
  </circle>
 </g>
</svg>