<?xml version="1.0"?><svg baseprofile="tiny" fill="#ececec" height="1001" stroke="black" stroke-linecap="round" stroke-linejoin="round" stroke-width=".1" version="1.2" viewbox="0 0 1000 1001" width="1000" xmlns="http://www.w3.org/2000/svg">
 <g id="combined">
  <path d="M583.97 462.21l0.17 11.33-0.2 16.91 6.53-0.16 5.67 0-0.03 1.16 4.79 0.12 5.45 0.47 3.71 0.16 1.77-0.43 0.61 0.91 0.39 1.73 0.34 0.17 0.53 1.09 0.04 0.6-1.56 0.48-0.85 1.94 0.2 0.41-0.02 1.62 6.54 0 0.01 3.93 0.55 0.42 2.71 3.88 2.11 2.53 1.39 0.04 2.32-0.67 3.23-1.45 3.43-1.45 3.01-1.83 1.37-0.6 0.86-5.26 0.39-1.05 2.45-4.35-0.04-1.16-1.51-3.33-2.79-6.01 9.05-9.05-2.13-2.07 5.19-2.14-1.55-2.63-1.29-1.56 0.79-0.73 2.22-1.33 2.8-0.89 1.14-0.52 1.09-0.84 2.02-2.19 1.04-1.3 2.12-1.98 1.5-0.94 0.77-0.26 3.31-1.21 1.74-0.32 5.15-0.07 12.02-0.06-0.1 3.19-0.52 1.61-0.98 1.3-3.63 4.18-3.26 3.66-1.08 1.04 4.8-0.03-0.08 6.26-0.06 0.67 4.8-0.01 0.17 10.55 0.29 19.1-11.53 7.81-5.9 3.94-7.34 5.18-1.78 0 0.16 16.62 0.36 9.46 0.34 24.83-12.95 0.04-3.76-0.04-0.08 5.08-1.55 0.03-0.65-0.55-3.25-1.78-0.77 0.39-3.65-0.13-0.06 6.81-14.86-0.08-8.41 0.15-8.37 0.41-1.48-0.37-1.62-0.16-1.99-0.02 0.05-12.88-5.74-0.13 0.03-1.29-2.23-0.05 0-0.24-4.16-0.04 0.02-12.89 0.03-0.02 2.62-2.05 2.22-1.52 1.86-1.58 2-1.51 1.43-1.45 1.28-2.15 0.69-2.26 0.09-5.67-0.15-13.42 0.23-13.67-4.32-0.05-7.81-0.18-1.87-0.15-1.94-0.54-1.94-1.04-1.62-1.24-1.84-1.84-6.35-8.42 0.13-2.63 0.44-6.56 0.65-9.24 0.65-9.61 0.65-7.15 13.14 0.27z" id="11100" name="University">
  </path>
  <path d="M658.84 548.8l-0.36-9.46-0.16-16.62 1.78 0 7.34-5.18 5.9-3.94 11.53-7.81-0.29-19.1 1.36 0.11 0.93-0.98 1.66 1.52 0.13 1.8 1.52 0.4 0.41 0.34 4.54-2.26 2.34-0.84-1.41-4.46 1.27-0.18 1.27 0.28 1.59 0.64 1.18 0.8 1.56 1.85 1.39 2.11-0.5 0.38-4.54 4.96-0.82 3.16 0.93 2.4 0.15 1.13 1.46-0.4 1.28 2.21 2.98 1.91 0.28 3.33-4.35 0.15-1.84 1.16-1.45 1.53 1.4 2.93 3.02 0.39 0.4 2.94-0.84 1 0.33 6.85 3.52 2.1 2.39 0.09 0.11 3.43 0.36 15.96 0.16 4.39 1.9 1.37 0.27 0.01 0.3 1.55 0.05 1.74-0.66 0 0 2.7-0.24 1.05 0 2.21 0.75 0-0.38 3.17 2.35-0.01 0.88-0.21-0.4 3.09-1.22 4.1-0.27 1.25-0.19 1.95 0 2.33-1.73-1.17-1.16 0-1.79 1.28-1.75 0.73-6.53 1.7-1.84 0.43-4.03-7.71-1.63-2.94-0.82-0.08-2.36-2.77-1.06-1.06-1.54 0-0.18-2.19-0.36-1.3-0.77-1.26-0.73-0.74-2.77-2.18-3.4-2.4-2.28-1.22-2.92-1.44-6.34-2.2-1.89-0.48-1.44-0.16-3.73-0.16z" id="11101" name="Wasatch">
  </path>
  <path d="M659.18 573.63l-0.34-24.83 3.73 0.16 1.44 0.16 1.89 0.48 6.34 2.2 2.92 1.44 2.28 1.22 3.4 2.4 2.77 2.18 0.73 0.74 0.77 1.26 0.36 1.3 0.18 2.19 1.54 0 1.06 1.06 2.36 2.77 0.82 0.08 1.63 2.94 4.03 7.71 1.84-0.43 6.53-1.7 1.75-0.73 1.79-1.28 1.16 0 1.73 1.17 0.94 0.62 2.56 6.1 11.08-0.05 5.33-3.28 0.05 2.67 1.42 0.52 7.32-0.01 0.13 92.96-43.34 0.06 0.16-2.22-0.39-2.34-1.38-2.13-1.52-0.96-0.99-0.36-1.15-0.07-16.21-0.05-1.54-0.21-1.59-0.97-1.19-1.5-0.43-1.74 0.15-9.85-0.27-2.21-1.45 0.24-2.13-0.05-8.76 0.01 0.02-4.01 0.16-24.5-0.03-21.65 0.03-9.27 0.26-11.18 0.05-7.06z" id="11102" name="Foothills">
  </path>
  <path d="M263.94 643.89l8.46-2.85 1.91 0.25 2.29-0.64 0.28-6.32 0.06-3.79-0.12-7.56 1.27-1.41 1.4 0.13 2.43 1.65 1.02 0.26 0.77 2.56 1.92 2.81 2.81 1.78 0.89 2.18 2.81 1.65 3.07 0.12 1.14-0.64 6.49-7.57 1.4-0.64 3.31 0.5 3.83-0.65-0.77-1.66-0.27-4.09 0.89-1.29 2.3-0.64 2.42-2.18 0.37-1.19 1.71-2.12 0.89-0.64 1.58-0.18 1.33 0.16 2.51 1.28 2.09 1.8 0.91 1.09 2.03 2.07 1.55 1.36 3.42 1.82 3.38 1.57 2.04 0.59 3.91 0.57 1.65 0.57 2.02 0.5 1.56-0.28 0.84-0.32 1.94 0.07 2.07 0.55 1.44 0.59 1.68 0.32 2.41-0.2 5.53-1.8 1.99-0.29 2.06-0.02 2.83 0.42 3.08 0.3 2.94 0.01 0.83 0.17 0.59 0.48 1.33 0.42 1.55 0.25 3.21-0.27 1.33-0.23 3.6-1.46 1.94-0.7 3.31-0.88 3.77-0.16 1.93 0.19 2.38 0.81 3.88 0.85 0.4 0.19 2.49-0.04 2.23 0.19 3.76 0.04 3.58-1.05 1.31-0.84 1.8-2.62 1.43-0.99 3.83-1.53 2.2-0.28 0.66-0.36 24.92 32.97-12.2 0.19-16.2 0-26.16 0.18-22.43 0.07-15.61 0.08-14.36 0.04-5.56 0.04-18.03 0.01-5.75-0.02-14.52 0.05-7.36-0.13-4.73-0.18-2.09-0.21-2.07-0.35-7.54-1.56-2.97-0.49-2.98-0.32-11.73-0.72 0.26-2.39z" id="11103" name="Fort Utah">
  </path>
  <path d="M658.69 651.3l8.76-0.01 2.13 0.05 1.45-0.24 0.27 2.21-0.15 9.85 0.43 1.74 1.19 1.5 1.59 0.97 1.54 0.21 16.21 0.05 1.15 0.07 0.99 0.36 1.52 0.96 1.38 2.13 0.39 2.34-0.16 2.22 43.34-0.06 38.56-0.09 0.2 29.43 0.35 47.84 0.01 0.64-22.43 0.03 0 0.04-20.16 0.03-2.81-1.65-0.15-9.48-0.74-1.58-0.91-4.95-2.04 1.75-1.85-1.58-1.85-4.71-6.35 2.35-0.43-2.91 0.11-1.9 1.63-5.97 0.07-1.91-4.7 0.3 0.09 1.38-0.65 0.79-2.05 0.06-2.48-0.26-3.01 0.21-1.36 0.26-1.25 0.44-1.54 0.86-1.74 1.42-2.08-1.19-1.74-0.42-1.86-0.18-9.5 0.02-7.37-0.15-8.89-0.14-1.34 0.49-4.38-7.68-6.7-11.69 1.08-1.61 0.76-1.37 0.36-1.5-0.24-9.16-0.17-8.32-0.63-18.12 0-1.25-0.84-4.24-0.6-1.97-0.3-1.73-0.12-2.44 0.01-2.53 0-0.01z" id="11104" name="Provost">
  </path>
  <path d="M659.38 705.55l6.7 11.69 4.38 7.68 1.41 2.67 40.6 71 2.19 3.3 3.41 5.49 4.87 7.56 6.46 8.66 4.76 4.51 10.71 9.39 14.55 13.26 5.5 4.95-0.18 0.32 0.83 0.76 0.61 0.96 20.1 28.42 1.27 4.24 1.53 2.11 1.78 0 13.48 18.73-0.14 0.93 2.51 3.26-0.01-0.9 1.48 2.05 7.98 31-14.37-0.02 0.06 8.03-11.29-0.22-13.28-2.32-6.72-1.4-1.22-0.6-27.5-67.96-5.62-13.9-0.6-1.63-10.53-26.08-1.7-3.63-2.33-4.14-1.43-2.16-2.61-3.36-1.38-1.68 3.14-1.61 2.47-1.39 1.54-1.02 3.06-2.31-4.4-6.89-4.65 0.33-0.27-1.72-12.43 0.11-8.56-11.3-11.56-16.11-17.2-21.75-17.01-21.94-13.04-14.37-12.47-10.78-11.72-9.45-9.43-2.63-11.06-2.02 3.08 0.06 12.86 0.08 9.2 0.08 8.17 0.28 3.81 0.08 4.77-0.03 5.36 0.04 0.98-0.31 3.22-2.33 12.49-0.02 3.39 5.95z" id="11105" name="Spring Creek">
  </path>
  <path d="M670.46 724.92l1.34-0.49 8.89 0.14 7.37 0.15 9.5-0.02 1.86 0.18 1.74 0.42 2.08 1.19 1.74-1.42 1.54-0.86 1.25-0.44 1.36-0.26 3.01-0.21 2.48 0.26 2.05-0.06 0.65-0.79-0.09-1.38 4.7-0.3-0.07 1.91-1.63 5.97-0.11 1.9 0.43 2.91 6.35-2.35 1.85 4.71 1.85 1.58 2.04-1.75 0.91 4.95 0.74 1.58 0.15 9.48 2.81 1.65 20.16-0.03 0-0.04 22.43-0.03 0.26 11.53 0.8 34.7 0.99 46.46 0.19 7.64 0.66 1.03-11.16 7.23-5.25-6.67-0.83-0.68-0.58 1-5.5-4.95-14.55-13.26-10.71-9.39-4.76-4.51-6.46-8.66-4.87-7.56-3.41-5.49-2.19-3.3-40.6-71-1.41-2.67z" id="11106" name="Provost South">
  </path>
  <path d="M316.35 573.63l-0.23-14.14-14.9 0.39 0.58 9.53-4.92-2.05-1.64-2.68-4.03-3.88-2.29-2.44-4.75-8.66-7.95-9.75-0.74-1.11-6.27-8.45-7.58-14.23-6.17-4-1.87-6.69-2.13-0.49-5.48-11.14 0.14-14.29 22.37-0.24-0.01-1.16 23.49-0.14 3.2 0.12 2.54 0.26 3.2 0.13 4.29-0.03 9.23-0.24 7.52-0.12 13.62 0.02 0.8 1.03 15.98 0.23 5.76 0.07 4.3 4.97-0.53-1.32 18.48 21.36-2.22 0.77 6.03 7.03 11.21 12.89 1.21 1.26 1.38 1.47 2.69 3.64 2.06 3.73 0.99 2.28 1.16 3.49 0.77 4.75 0.12 2.63-0.04 11.68-0.05 5.64 0 7.12-16.33 0.1-5.33-5.78-0.97-0.07-10.3 0.13-3.91-0.04-6.23 0.01 0.14 5.91-4.13 0.02-42.26 0.48z" id="11107" name="Lakeview North">
  </path>
  <path d="M659.76 359.02l0.78-0.16 0.1-2.42 0.32-1.08 0.81-1.3 0.91-3.51 1.61 1.08 1.24-1.3 3.38-3.35 1.34-0.71 4.35-1.08 3.28-0.76 4.14-1.41 2.79-0.76 0-2 1.88 0 2.64 0.8 0.7-0.97 0.58-1.35 0.27-1.78 2.55-0.01 0.07 2.58 1.48 2.28-0.31 7.17-0.56 8.38 0.12 0.18-1.01 4.27-5.55-0.11-0.98 1.92 5-0.01 0.11 2.01 0.44 0 0.18 3.23 4.08-0.01 0.3 3.45 2.25 3.44 1.77 7.62 0.81 3.22-3.07-0.34-0.26 0.13-10.9 12.33-2.21-2.42-0.89-0.76-2.37 1.46-2.02 1.54-3.66 2.98-1.15 0.83-2.12 1.9-1.73 2.04-3.46 5.17-0.98 1.19-1.09 0.88-4.4 2.46-1.55 0.38-5.3 0.31-1.11-7.31-0.03-1.89-0.26-2.29-0.38-1.34-0.87-1.84-0.85-1.18-1.22-0.29-1.56-3.51-1.08-5.64-0.1-2.63 0.19-3.79 2.23 0.09 3.48-6.24 1.55 0 0.19-2.72-0.77-0.59-0.2-3.99 0.18-2.43 0.49-1.17-0.2-1.07 3.88-0.69 1.84-0.88-0.11-6.23z" id="11108" name="Indian Hills">
  </path>
  <path d="M583.73 555.87l-0.03 0.02-0.02 12.89-0.03 13.64 0.02 0.77-0.09 25.23-17.13-0.08-25.55-0.12-8.28-0.04-0.58 0.05-31.13-0.12-2.19 0.05-19.71-0.07-0.61-0.16-4.59-0.02-2.22-0.28-1.68-0.04-13.82 0.01-1.52-0.09-2.16 0.05-1.04 0.31-2.85 1.74-1.08-1.76 2.54-1.37 1.93-1.54 1.69-1.57 1.74-2.06 1.73-1.49 2.37-1.4 2.4-0.68 2.52-0.96 1.7-1.14 3.33-1.41 3.55-1 2.58-0.86 3.29-2.01 4.4-2.15 1.76-0.31 4.89-0.33 1.51-0.17 2.37-1.11 3.16-1.71 1.71-0.62 4.63-0.75 4.05-0.49 1.75-0.63 0.66-0.99 0.78-2.81 1.63-4.55 1.31-2.12 1.26-1.34 3.54-2.21 2.13-1.55 0.68-1.37 0.53-1.73 0.62-1.56 1.07-1.52 2.95-3.63 1.31-1.9 0.72-3.14 0.07-2.9-0.65-4.39 0.63-2.75 2.04-3.64 2.06 1.22 4.58 2.53 3.45 1.59 24.44 0.22 18.94-0.09-0.08 7.47 0.02 4.94z" id="11109" name="North Park">
  </path>
  <path d="M583.68 568.78l4.16 0.04 0 0.24 2.23 0.05-0.03 1.29 5.74 0.13-0.05 12.88 1.99 0.02 1.62 0.16 1.48 0.37 8.37-0.41 8.41-0.15 14.86 0.08 0.06-6.81 3.65 0.13 0.77-0.39 3.25 1.78 0.65 0.55 1.55-0.03 0.08-5.08 3.76 0.04 12.95-0.04-0.05 7.06-0.26 11.18-0.03 9.27 0.03 21.65-0.16 24.5-0.02 4.01 0 0.01-21.73-0.24-36.28 0.06 0.01-9.05-8.4 0.02-0.06-8.44-4.13 0 0.01-16.14-1.11-1.23-0.02-3.61 1.17 0.02 0.01-1.78 1.17 0.02-0.01-2.5-5.74-0.02 0.09-25.23-0.02-0.77 0.03-13.64z" id="11110" name="Joaquin">
  </path>
  <path d="M592.05 701.67l11.06 2.02 9.43 2.63 11.72 9.45 12.47 10.78 13.04 14.37 17.01 21.94 17.2 21.75 11.56 16.11 8.56 11.3-2.7 0.02-15.05-2.98-0.04-1.47-0.5-1.31-0.67-0.81-2.03-1.25 0.05 5.27-12.3-3.87-1.65-0.55-2.96-1.44-0.04-2.58-7.09 0.07 2.71 12.18 0.12-0.01 13.61 56.69-31.28 0.34 0.04 3.74-4.31-0.35-21.94-7-2.38 0.02-4.2-6.42-2.36-3.49-7.42-11.25-3.3-5.44-7.07-11.43-3.24-5.2-4.22-7.29-4.9-7.43-5.38-8.38-4.04-6.8-2.99-4.86-4.64-7.7-5.38-8.37-7.48-11.93-2.69-3.59-1.94-2.31-2.14-2.35 4.56 0.07 5.02 0.15 0.08-2.8 0-7.25 0.29-1.05 0.63-0.66 1.01-0.33 4.44 0.02 0.95 0.28 2.18 1.42 1.1 0.28 4.19-0.13 0.9-0.11-0.01-3.02 0.42-0.05 4 0.15-0.12-19.41-5.99 0.01-0.03-18.66 17.41 0.09 8.72 0.18z" id="11111" name="East Bay">
  </path>
  <path d="M530.32 537.99l-2.04 3.64-0.63 2.75 0.65 4.39-0.07 2.9-0.72 3.14-1.31 1.9-2.95 3.63-1.07 1.52-0.62 1.56-0.53 1.73-0.68 1.37-2.13 1.55-3.54 2.21-1.26 1.34-1.31 2.12-1.63 4.55-0.78 2.81-0.66 0.99-1.75 0.63-4.05 0.49-4.63 0.75-1.71 0.62-3.16 1.71-2.37 1.11-1.51 0.17-4.89 0.33-1.76 0.31-4.4 2.15-3.29 2.01-2.58 0.86-3.55 1-3.33 1.41-1.7 1.14-2.52 0.96-2.4 0.68-2.37 1.4-1.73 1.49-1.74 2.06-1.69 1.57-1.93 1.54-2.54 1.37-0.99 0.59-5.09 1.93-2.4 1.22-4.06 2.43-3.29 2.3-0.56 0.31-2.83-3.74-5.02-6.77-3.85-4.57-5.21-5.96-2.57-3.24-1.76-2.58-0.92-1.63-1.25-2.92-1-3.15-0.38-1.7 4.16-1.33 1.49-0.26 6.67-0.37 3.42-0.15 1.88-0.19 6.13-0.22 4.78-0.12 2.34 0.07 4.18-0.14 3.24 0.13 2.24 0.32 8.52 1.71 3.98 0.83 2.5 0.37 3.03 0.1 1.56-0.08 0.08-2.32-0.5-1.9-1-1.83 0.82-0.59 1.41 0.32 0.17 0.75 0.99 0 1.66 0.33 0.16-0.83 2.16 0.1 0.4-2.21-0.52-1.45-0.03-6.41 3.43-0.03 2.37-1.07-0.02-1.27 2.1-0.09 1.73-0.53 1.89 0.01 0.48-2.22 0.12-3 0.48-1.63 0.15-1.16 0.46-1.27 0.41-0.3 1.25-3.48 3.14 0.29 0.31-0.41 0.54-1.9-0.43-0.16 1.37-2.98 0.29-1.08 1.69 0.46 0.83-1.21 0.04-1.75-1.14-0.36 2.12-6.98-1.67-0.55 0.48-1.67-0.82-1.87-1.02-0.27 0.49-1.81 0.11-1.75 2.36-0.04 2.15 0.26 1.95 0.52 1.8-0.07 1.34-0.51 1.21-0.9 3.07-4.04 3.86-4.55 1.63-2.11 1.06-1.56 0.46-1.01 0.69-3.39 1.14-1.8 10.27 14.56 2.47 3.35 1.83 2.69 1.33 1.72 2.08 2.97-0.63 1.76-1.99 3.11-1.12 2.07z" id="11112" name="Rivergrove">
  </path>
  <path d="M662.3 455.93l-0.77 0.26-1.5 0.94-2.12 1.98-1.04 1.3-2.02 2.19-1.09 0.84-1.14 0.52-2.8 0.89-2.22 1.33-0.79 0.73 1.29 1.56 1.55 2.63-5.19 2.14 2.13 2.07-9.05 9.05 2.79 6.01 1.51 3.33 0.04 1.16-2.45 4.35-0.39 1.05-0.86 5.26-1.37 0.6-3.01 1.83-3.43 1.45-3.23 1.45-2.32 0.67-1.39-0.04-2.11-2.53-2.71-3.88-0.55-0.42-0.01-3.93-6.54 0 0.02-1.62-0.2-0.41 0.85-1.94 1.56-0.48-0.04-0.6-0.53-1.09-0.34-0.17-0.39-1.73-0.61-0.91-1.77 0.43-3.71-0.16-5.45-0.47-4.79-0.12 0.03-1.16-5.67 0-6.53 0.16 0.2-16.91-0.17-11.33 14.32-0.14 6.2 0.07 0.64-0.21 0.97-0.86 8-6.37 0.88-0.3 1.71 0.06 9.27-0.25 11.15-0.02 6.75-0.3 10.75-0.23 0.69-0.7-0.03-1.27 6.46-0.08 0.06 2.69 0.51 1.63z" id="11113" name="Pleasant View">
  </path>
  <path d="M610.67 340.56l0.02 3.93-1.43 2.79-0.47 5.27-3.49 3.19-0.63 1.68-0.08 0.72-0.63 0.95-0.4 2.56-1.5 1.36-1.03 2.47-0.08 1.75-1.5 1.92 0.24 2.95 0.24 0.96-1.98 4.39 1.04 3.98-1.34 2.96-4.6 5.51-0.87 1.75-0.64 0.72-1.48 0.43 0.42 5 1.05 11.48 0.32 5.65 0.22 1.78-0.37 7.02-0.8 4.58-1.3 5.38-2.98-0.09-7.41 0.21 0.03-2.37-5.58 0.22-1.64 21.6-10.86-0.11-0.1-1.49-0.27-1.47-0.71-2.12-0.91-1.85-0.45-1.58 0-0.82 0.31-3.9-0.45-1.58-1.07-2.13-0.93-1.24-1.79-1.69-0.58-0.78-0.57-1.34-0.16-0.96 0.08-1.45-8.18-0.7-0.82-6.91 0.63 0 0.52-6.26 0.02-2.64-0.24-3.86-0.52-7.02-2.2-2.99-2.56 0.03-0.49-4.69-0.53-5.58-0.85-1.27-3.71 0.03 0.13-3.86-0.34-6.23 0.53-13.03 5.69-0.25-5.23-6.09-1.06-2.77 0.95-6.41 0.16-8.35 1.96-0.51 0 0.28 2.48-0.51 4.79-0.74 5.79-0.13 8.79 0.22 2.53-0.22 1.81 0.06 8.66 0.08 13.26 0 3.2 0.07 4.5 0.33 3.65 0.5 10.32 0.01 2.07 0.31 1.4 0.91z" id="11114" name="Riverside">
  </path>
  <path d="M566.45 608.34l17.13 0.08 5.74 0.02 0.01 2.5-1.17-0.02-0.01 1.78-1.17-0.02 0.02 3.61 1.11 1.23-0.01 16.14 4.13 0 0.06 8.44 8.4-0.02-0.01 9.05-0.05 5.36-2.68 0.17-0.15 3-5.61 0.07-0.04 8.55-2.3 0 0.01 4.08 2.26 0.02-0.02 1.77 3.03-0.01 0 2.44 0.23 0-0.01 3.19-3.27-0.03-0.01-1.3-2.12 0.01 0.06 2.3-4.09-0.02 0.02 4.15 1.96-0.01-0.05 8.46 4.19-0.02 0.01 8.36-8.72-0.18-17.41-0.09 0.23-33.39-5.01 0.01 0.01-8.24-11.67-0.17-8.84-0.05 0.03-8.88-8.74-0.02 0.05-8.87 8.79 0.04 0.01-2.51 2.82 0 0-1.65 1.76 0.01 0-0.61 4.89 0.04 0 0.6 7.72 0.01-0.01-4.18 8.34 0.03 0.05-16.78 0.1-8.45z" id="11115" name="Downtown">
  </path>
  <path d="M684.52 454.27l-12.02 0.06-5.15 0.07-1.74 0.32-3.31 1.21-0.51-1.63-0.06-2.69-6.46 0.08 0.03 1.27-0.69 0.7-10.75 0.23-6.75 0.3-11.15 0.02-9.27 0.25-1.71-0.06-0.88 0.3-8 6.37-0.97 0.86-0.64 0.21-6.2-0.07-14.32 0.14 0.37-3.16 0.56-3.28 1.7-8.6 2.59-11.81 0.41-1.67 1.3-5.38 2.73 0.79 1.44 0.12 5.94-2.04 1.57-0.46 0.88 0.28 0.98-0.51 2.09-1.58 3.26-2.76 0.85-0.33 0.72 0.65 0.59 0.98 0.27 1.25 0.07 2.82 6.4 0.12-0.07-5.31 2.29-0.01 2.22 1.18 0.72 0.26 5.76 2.68 2.94 1.51 1.37 0.58 3.84 0.5-0.12-12.04 16.83-0.34 5.3-0.31 1.55-0.38 4.4-2.46 1.09-0.88 0.98-1.19 3.46-5.17 1.73-2.04 2.12-1.9 1.15-0.83 3.66-2.98 2.02-1.54 2.37-1.46 0.89 0.76 2.21 2.42 10.9-12.33 0.26-0.13 3.07 0.34-0.81-3.22 5.46-0.03 0.16 13.24 4.7 10.32 6.86-0.01 0.02 22.81 22.39-0.19 0.01 26.63-7.86-0.05-3.03-0.06-2.11-0.26-1.19-0.53-1.58-0.92-1.19-0.86-1.92-0.2-3.23 0.07-6.12-0.16-8.25 0.11-11.61 0.25-2 0.54-1.14 0.15-4.67 0.07z" id="11116" name="Rock Canyon">
  </path>
  <path d="M540.9 608.22l25.55 0.12-0.1 8.45-0.05 16.78-8.34-0.03 0.01 4.18-7.72-0.01 0-0.6-4.89-0.04 0 0.61-1.76-0.01 0 1.65-2.82 0 0.12-31.1z" id="11117" name="Timp">
  </path>
  <path d="M657.86 220.28l0.46 22.21 0 2.54-2.71 0-0.49 0.97-2.23 1.57-1.55 0.49-2.28 0.34-2.03 0.49-0.97 0.68-1.36 1.47-1.45 1.95-6.77 8.4-0.53 1.52 0.06 4.83 0.23 0.83-1.2 0.9 0.41 0.9 0.27 1.32 0.06 5.4 0.08 2.56 2.9-0.07 1.02 3.44 6.64-0.66-6.65 5.04 1.43-0.01-0.12 3.47 2.89-0.04 0.32 2.18 0.68 2.43 1.26 0.58 2.23-1.07 3.48-4.19 2.52-0.98 2.81-4.58 0.48-0.29 0.87-2.25 1.6 0.25 0.11 3.89-0.39 1.66 2.43 1.65-1.26 2.92 0.59 1.07 2.91 1.65-1.36 1.36-2.71 2.44-1.93 2.15 0.29 0.48-0.09 4.29 3.78 0.09 0.35 4.92 0.58 2.72 0.59 2.24-0.58 1.95-0.68 1.46 0.1 3.11-4.07-0.09 0.2 2.44-5.24 0.3 0.6 6.91 8.53 0.08-2.9 3.8 1.26 2.33-1.55 1.27 1.5 1.98-1.13 0.69-1.97 0.43-10.42 0.02-2.13 0.16-3.19 0.5-5.57 0.06-5.11 0.12-9.84 0.17-6.4 0.23-1.48-0.3-1.06-0.59-1.08-1.14-1.23-1.76 0.02-2.62-0.27 0 0.1-3.88-1.57 0.01-0.48-1.53-0.95-2.4-2.42-5.33-2.85-5.86-3.8 0.11-0.26-0.13-1.01-1.5-0.52-2.3-0.5-1.11-0.96-2.67-0.84-0.2-0.67-2.29-1.7-4.23-2.21-4.33-0.01-8.55-0.3-10.86 0.08-7.75 2.35 0 1.87-8.88 0.93-5.67 1.13-2.46 2.06-5.67-0.01-3.68 0.83-8.7 0.75-1.79 1.04 0.09-0.19-1.23 1.31-3.02-0.38-4.28-1.09-0.04-0.17-1.59 0.21-1.28 1.09-0.03-0.4-4.15 0.03-2.41-0.86 0.01 0.31-1.79 0.63-0.01 0.09-3.6-0.18-2.58 0.76-0.02-0.12-1.44 0.28-1.54 0.6-0.05-0.03-0.86-1.74 0.1-0.19-0.7-0.9-0.68-1.28-0.16 0.47-2.21 0.8-5.36 0.66-7.23-0.06-5.99-0.54-9.05-1.19 0.05-0.05-1.59-0.41-3.87-1.17-5.63-1.18-6.69-0.11-1.47 0.18-1.55 0.86-3.83 2.49-8.85 1.57-3.66 1.19-2.95 1.2-2.22 1.06-1.65 1.9-2.42 27.46-0.67-0.5-23.7-0.29-10.36 3.04-3.32 3.95-2.83 13.91-8.05 2.49-1.79 2.51-1.94 1.77-1.5 2.88-4.63 4.6-9.96 3.87-10.32 1.44-2.03 2.02-1.02 2.9-0.12 3.3 0.26 3.03-0.15 6.92-1.17 2.45-0.01 2.31 1.59 4.39 5.32 1.25 0.61 3.31 0.86 5.2-0.01 4.75 0.29 4.33-0.88 10.29-3.37 2.7-0.78 0 8.02-2.56-0.02-0.86 1.28-2.88 5.19-1 1.23-1.04 0.57-2.08 0.57-0.46 0.28-0.26 0.97 0.5 0.67 0.77 0.05 17.36 0.11 5.32 11.86 1.41 0.03 0.46 22.82 22.83 0.69 0.02 23.04-43.31-0.05-9.37 0.19-37.92 1.69 0.64 24.49-45.94-0.45 0.06 0.17 0.73 34.41-18.63 0.03-0.13-0.59-1.66-0.62-4.28 1.09 0 0.14-8.18 0.01-0.98 11.47-1.09 6.1 1.24 1.03 0 0.39 2.75-0.3 0.2 2.93 2.73-0.06 0.12 1.7 8.49-0.15 7.56-0.04 10.04-0.15 1.19 5.47-7.1 0.3-4.75-0.21 0.11 4.84-16.87 0.24 0.54 7.13 18.45-0.01 4.26-0.56 0-1.5 5.71-0.01-0.01-5.47 6.09-0.01-0.01-4.53 16.89-0.03 0.02 4.67 0.51-0.01z" id="11118" name="North Timpview">
  </path>
  <path d="M405.67 572.87l0-7.12 0.05-5.64 0.04-11.68-0.12-2.63-0.77-4.75-1.16-3.49-0.99-2.28-2.06-3.73-2.69-3.64-1.38-1.47 11.37-0.44 0.46-0.67 84.76-0.26 0.18-0.11-0.11 1.75-0.49 1.81 1.02 0.27 0.82 1.87-0.48 1.67 1.67 0.55-2.12 6.98 1.14 0.36-0.04 1.75-0.83 1.21-1.69-0.46-0.29 1.08-1.37 2.98 0.43 0.16-0.54 1.9-0.31 0.41-3.14-0.29-1.25 3.48-0.41 0.3-0.46 1.27-0.15 1.16-0.48 1.63-0.12 3-0.48 2.22-1.89-0.01-1.73 0.53-2.1 0.09 0.02 1.27-2.37 1.07-3.43 0.03 0.03 6.41 0.52 1.45-0.4 2.21-2.16-0.1-0.16 0.83-1.66-0.33-0.99 0-0.17-0.75-1.41-0.32-0.82 0.59 1 1.83 0.5 1.9-0.08 2.32-1.56 0.08-3.03-0.1-2.5-0.37-3.98-0.83-8.52-1.71-2.24-0.32-3.24-0.13-4.18 0.14-2.34-0.07-4.78 0.12-6.13 0.22-1.88 0.19-3.42 0.15-6.67 0.37-1.49 0.26-4.16 1.33-0.29-1.68-0.2-2.09-0.1-3.73z" id="11119" name="Grandview South">
  </path>
  <path d="M396.59 526.44l-1.21-1.26-11.21-12.89-6.03-7.03 2.22-0.77-0.52-0.64 1.72-0.77 1.65-0.55 2.29-0.5 2.74-0.21 0.03 0.6 14.39-0.05 0-0.58 4.46-0.01 0.44-0.33-0.05-8.11-0.14-1.14 17.43-0.08 0-0.9 1.33 1.32 1.64 1.14 0.71 0.23 0.72-0.19 1.42-0.96 2.09-1.72 1.14-0.69 2.27-2.26 2.46-2.91 2.42-2.99 1.24-1.98 0.2-0.63 35.9 0.29 0.18 0.5 3.7 0.97 1.81-1.79 1.42-2.18 4.31-2.97 1.42 1.38 1.09-0.96 0.04-3.04 8.27 12.03 15.5 21.95-1.14 1.8-0.69 3.39-0.46 1.01-1.06 1.56-1.63 2.11-3.86 4.55-3.07 4.04-1.21 0.9-1.34 0.51-1.8 0.07-1.95-0.52-2.15-0.26-2.36 0.04-0.18 0.11-84.76 0.26-0.46 0.67-11.37 0.44z" id="11120" name="Grandview North">
  </path>
  <path d="M684.58 486.69l-0.17-10.55-4.8 0.01 0.06-0.67 0.08-6.26-4.8 0.03 1.08-1.04 3.26-3.66 3.63-4.18 0.98-1.3 0.52-1.61 0.1-3.19 4.67-0.07 1.14-0.15 2-0.54 11.61-0.25 8.25-0.11 6.12 0.16 3.23-0.07 1.92 0.2 1.19 0.86 1.58 0.92 1.19 0.53 2.11 0.26 3.03 0.06 7.86 0.05 0.15 109.59 0.02 16.98-7.32 0.01-1.42-0.52-0.05-2.67-5.33 3.28-11.08 0.05-2.56-6.1-0.94-0.62 0-2.33 0.19-1.95 0.27-1.25 1.22-4.1 0.4-3.09-0.88 0.21-2.35 0.01 0.38-3.17-0.75 0 0-2.21 0.24-1.05 0-2.7 0.66 0-0.05-1.74-0.3-1.55-0.27-0.01-1.9-1.37-0.16-4.39-0.36-15.96-0.11-3.43-2.39-0.09-3.52-2.1-0.33-6.85 0.84-1-0.4-2.94-3.02-0.39-1.4-2.93 1.45-1.53 1.84-1.16 4.35-0.15-0.28-3.33-2.98-1.91-1.28-2.21-1.46 0.4-0.15-1.13-0.93-2.4 0.82-3.16 4.54-4.96 0.5-0.38-1.39-2.11-1.56-1.85-1.18-0.8-1.59-0.64-1.27-0.28-1.27 0.18 1.41 4.46-2.34 0.84-4.54 2.26-0.41-0.34-1.52-0.4-0.13-1.8-1.66-1.52-0.93 0.98-1.36-0.11z" id="11121" name="Oak Hills">
  </path>
  <path d="M263.94 643.89l-0.26 2.39 11.73 0.72 2.98 0.32 2.97 0.49 7.54 1.56 2.07 0.35 2.09 0.21 4.73 0.18 7.36 0.13 14.52-0.05 5.75 0.02 18.03-0.01 5.56-0.04 14.36-0.04 15.61-0.08 22.43-0.07 26.16-0.18 16.2 0 0.03 6.68 0.09 4.31-0.04 5.98 0.09 12.77-0.18 2.39 0.05 15.46 0.42 2.56 0.03 4.56-2.37-0.01-0.11 1.09-1.59 0.07-0.33 5.1-0.35 0.01-0.3 12.06-13.22-0.2 0.79 7.91-0.63 58.06 0.14 55.91 0.13 50.19-100.54 0.26-96.57 0.25-0.17-67.93-0.12-46.58-0.17-64.82-0.3-1.57-14.22-17.45-21.13-23.93-4.9-15.44 4.43-8.96 5.26-3.68-9.35-10.14 9.31-3.69-5.16-0.09-6.56-0.72-2.39-0.09 0.72-2.41 2.38-4.5-0.12-7.52 2.58-7.01 5.63-2.95 7.54 7.02 22.06 3.67 0.03 10.82 4.07 0.13 0-3.34 2.83-1.23 5.68 3.24 7.29 0.39 9.34 5.67 3.59 1.05 1.28 3.84-0.89 2.31-1.9 1.41-2.17 0.26-1.78 1.16 3.44 1.65 5.49 0.63 2.29-0.26 0.72-0.25z" id="11122" name="Provo Bay">
  </path>
  <path d="M443.77 649.79l12.2-0.19 39.16 51.82 0.68 0 6.93 9.03 5.16 5.98 5.15 5.56 10.81 11.26-2.36 2.51-2.03 1.99-1.75-0.88-1.04-0.14-25.64-0.11-0.03 11.29-2.26 0.01 0.04 4.57-4.36 0.01-0.23 6.41-11.01-0.01 0.1 0.64-2.21 0.53-0.62 1.18 1.14 10.05-2 0.95 0.14 7.72 2.99-0.08 0.23 33.01 0.19 81.72-28.12 0.03-18.61 0.04-0.13-50.19-0.14-55.91 0.63-58.06-0.79-7.91 13.22 0.2 0.3-12.06 0.35-0.01 0.33-5.1 1.59-0.07 0.11-1.09 2.37 0.01-0.03-4.56-0.42-2.56-0.05-15.46 0.18-2.39-0.09-12.77 0.04-5.98-0.09-4.31-0.03-6.68z" id="11123" name="Sunset">
  </path>
  <path d="M531.93 650.66l8.74 0.02-0.03 8.88 8.84 0.05 11.67 0.17-0.01 8.24 5.01-0.01-0.23 33.39-8.43 0.01-35.65-0.04-26.03 0.05-0.68 0-39.16-51.82 42.44 0.8 8.32 0.11 8.49 0.01 8.3 0.12 8.41 0.02z" id="11124" name="Franklin">
  </path>
  <path d="M565.92 701.4l0.03 18.66 5.99-0.01 0.12 19.41-4-0.15-0.42 0.05 0.01 3.02-0.9 0.11-4.19 0.13-1.1-0.28-2.18-1.42-0.95-0.28-4.44-0.02-1.01 0.33-0.63 0.66-0.29 1.05 0 7.25-0.08 2.8-5.02-0.15-4.56-0.07-5.46-5.76-4.06-4.15-8.92-9.33-10.81-11.26-5.15-5.56-5.16-5.98-6.93-9.03 26.03-0.05 35.65 0.04 8.43-0.01z" id="11125" name="Franklin South">
  </path>
  <path d="M542.3 752.49l2.14 2.35 1.94 2.31 2.69 3.59 7.48 11.93 5.38 8.37 4.64 7.7 2.99 4.86 4.04 6.8 5.38 8.38 4.9 7.43 4.22 7.29 3.24 5.2 7.07 11.43 3.3 5.44 7.42 11.25 2.36 3.49 4.2 6.42-19.35 0.01 0.05 27.66-104.82 0.2-18.42 0.02-0.19-81.72-0.23-33.01-2.99 0.08-0.14-7.72 2-0.95-1.14-10.05 0.62-1.18 2.21-0.53-0.1-0.64 11.01 0.01 0.23-6.41 4.36-0.01-0.04-4.57 2.26-0.01 0.03-11.29 25.64 0.11 1.04 0.14 1.75 0.88 2.03-1.99 2.36-2.51 8.92 9.33 4.06 4.15 5.46 5.76z" id="11126" name="Lakewood">
  </path>
  <path d="M455.97 649.6l-24.92-32.97 0.56-0.31 3.29-2.3 4.06-2.43 2.4-1.22 5.09-1.93 0.99-0.59 1.08 1.76 2.85-1.74 1.04-0.31 2.16-0.05 1.52 0.09 13.82-0.01 1.68 0.04 2.22 0.28 4.59 0.02 0.61 0.16 19.71 0.07 2.19-0.05 31.13 0.12 0.58-0.05 8.28 0.04-0.12 31.1-0.01 2.51-8.79-0.04-0.05 8.87-8.41-0.02-8.3-0.12-8.49-0.01-8.32-0.11-42.44-0.8z" id="11127" name="Dixon">
  </path>
  <path d="M659.76 359.02l0.11 6.23-1.84 0.88-3.88 0.69 0.2 1.07-0.49 1.17-0.18 2.43 0.2 3.99 0.77 0.59-0.19 2.72-1.55 0-3.48 6.24-2.23-0.09-0.19 3.79 0.1 2.63 1.08 5.64 1.56 3.51 1.22 0.29 0.85 1.18 0.87 1.84 0.38 1.34 0.26 2.29 0.03 1.89 1.11 7.31-16.83 0.34 0.12 12.04-3.84-0.5-1.37-0.58-2.94-1.51-5.76-2.68-0.72-0.26-2.22-1.18-2.29 0.01 0.07 5.31-6.4-0.12-0.07-2.82-0.27-1.25-0.59-0.98-0.72-0.65-0.85 0.33-3.26 2.76-2.09 1.58-0.98 0.51-0.88-0.28-1.57 0.46-5.94 2.04-1.44-0.12-2.73-0.79 0.8-4.58 0.37-7.02-0.22-1.78-0.32-5.65-1.05-11.48-0.42-5 1.48-0.43 0.64-0.72 0.87-1.75 4.6-5.51 1.34-2.96-1.04-3.98 1.98-4.39-0.24-0.96-0.24-2.95 1.5-1.92 0.08-1.75 1.03-2.47 1.5-1.36 0.4-2.56 0.63-0.95 0.08-0.72 0.63-1.68 3.49-3.19 0.47-5.27 1.43-2.79-0.02-3.93 1.23 1.76 1.08 1.14 1.06 0.59 1.48 0.3 6.4-0.23 9.84-0.17 5.11-0.12 5.57-0.06 3.19-0.5 2.13-0.16 10.42-0.02 1.97-0.43 1.13-0.69 0.31 0.52-3.61 5.85 0.32 1.83 1.35 0.48-2.42 3.41 0.11 4.97 2.42-0.01z" id="11128" name="Edgemont">
  </path>
  <path d="M431.05 616.63l-0.66 0.36-2.2 0.28-3.83 1.53-1.43 0.99-1.8 2.62-1.31 0.84-3.58 1.05-3.76-0.04-2.23-0.19-2.49 0.04-0.4-0.19-3.88-0.85-2.38-0.81-1.93-0.19-3.77 0.16-3.31 0.88-1.94 0.7-3.6 1.46-1.33 0.23-3.21 0.27-1.55-0.25-1.33-0.42-0.59-0.48-0.83-0.17-2.94-0.01-3.08-0.3-2.83-0.42-2.06 0.02-1.99 0.29-5.53 1.8-2.41 0.2-1.68-0.32-1.44-0.59-2.07-0.55-1.94-0.07-0.84 0.32-1.56 0.28-2.02-0.5-1.65-0.57-3.91-0.57-2.04-0.59-3.38-1.57-3.42-1.82-1.55-1.36-2.03-2.07-0.91-1.09-2.09-1.8-2.51-1.28-1.33-0.16-1.58 0.18-0.89 0.64-1.71 2.12 0.32-1.04-0.07-5.88-0.16-24.42-0.06-9.69 42.26-0.48 4.13-0.02-0.14-5.91 6.23-0.01 3.91 0.04 10.3-0.13 0.97 0.07 5.33 5.78 16.33-0.1 0.1 3.73 0.2 2.09 0.29 1.68 0.38 1.7 1 3.15 1.25 2.92 0.92 1.63 1.76 2.58 2.57 3.24 5.21 5.96 3.85 4.57 5.02 6.77 2.83 3.74z" id="11129" name="Lakeview South">
  </path>
  <path d="M658.69 651.31l-0.01 2.53 0.12 2.44 0.3 1.73 0.6 1.97 0.84 4.24 0 1.25 0.63 18.12 0.17 8.32 0.24 9.16-0.36 1.5-0.76 1.37-1.08 1.61-3.39-5.95-12.49 0.02-3.22 2.33-0.98 0.31-5.36-0.04-4.77 0.03-3.81-0.08-8.17-0.28-9.2-0.08-12.86-0.08-3.08-0.06-0.01-8.36-4.19 0.02 0.05-8.46-1.96 0.01-0.02-4.15 4.09 0.02-0.06-2.3 2.12-0.01 0.01 1.3 3.27 0.03 0.01-3.19-0.23 0 0-2.44-3.03 0.01 0.02-1.77-2.26-0.02-0.01-4.08 2.3 0 0.04-8.55 5.61-0.07 0.15-3 2.68-0.17 0.05-5.36 36.28-0.06 21.73 0.24z" id="11130" name="Maeser">
  </path>
  <path d="M583.97 462.21l-13.14-0.27-0.65 7.15-0.65 9.61-0.65 9.24-0.44 6.56-0.13 2.63 6.35 8.42 1.84 1.84 1.62 1.24 1.94 1.04 1.94 0.54 1.87 0.15 7.81 0.18 4.32 0.05-0.23 13.67 0.15 13.42-0.09 5.67-0.69 2.26-1.28 2.15-1.43 1.45-2 1.51-1.86 1.58-2.22 1.52-2.62 2.05-0.02-4.94 0.08-7.47-18.94 0.09-24.44-0.22-3.45-1.59-4.58-2.53-2.06-1.22 1.12-2.07 1.99-3.11 0.63-1.76-2.08-2.97-1.33-1.72-1.83-2.69-2.47-3.35-10.27-14.56-15.5-21.95-8.27-12.03 0.04-2.82 0.59-1.71 0.68-1.27 0.9-1 0.59-0.98 0.31-3.58 0.3-1.39 0.68-1.29 1.36-3.15 0.64-1.1 1.14-1.15 1.44-1.09 1.12-1.03 3.32-3.32 0.3-1.17-0.19-1.93 0.16-1.72 0.99-2.83 1.33-4.38 0.44-1.25 0.54-4.15 0.01-3.29 0.57-1.8 0.38-0.75 1.4-1.37 0.85-1.37 1.52-3.56 1.81-2.55 0.43 1.62 0.05 0.8-1.53 11.84-0.11 4.4 0.76 4.26 0.8 2.71 1.39 3.02 1.55 2.46 2.63 2.87 1.42 1.41-0.01-5.07 4.05 0 0.15-4.7 1.45-1.74-0.04-1.2 7.56-0.26-1.03-1.8-0.44-1.71 1.1-2.84 0.02-1.09-0.61-1.82 0-1 1.24 0.09 9.02 1.02 8.18 0.7-0.08 1.45 0.16 0.96 0.57 1.34 0.58 0.78 1.79 1.69 0.93 1.24 1.07 2.13 0.45 1.58-0.31 3.9 0 0.82 0.45 1.58 0.91 1.85 0.71 2.12 0.27 1.47 0.1 1.49 10.86 0.11 1.64-21.6 5.58-0.22-0.03 2.37 7.41-0.21 2.98 0.09-0.41 1.67-2.59 11.81-1.7 8.6-0.56 3.28-0.37 3.16z" id="11131" name="Carterville">
  </path>
  <path d="M693.43 336.95l-2.55 0.01-0.27 1.78-0.58 1.35-0.7 0.97-2.64-0.8-1.88 0 0 2-2.79 0.76-4.14 1.41-3.28 0.76-4.35 1.08-1.34 0.71-3.38 3.35-1.24 1.3-1.61-1.08-0.91 3.51-0.81 1.3-0.32 1.08-0.1 2.42-0.78 0.16-2.42 0.01-0.11-4.97 2.42-3.41-1.35-0.48-0.32-1.83 3.61-5.85-0.31-0.52-1.5-1.98 1.55-1.27-1.26-2.33 2.9-3.8-8.53-0.08-0.6-6.91 5.24-0.3-0.2-2.44 4.07 0.09-0.1-3.11 0.68-1.46 0.58-1.95-0.59-2.24-0.58-2.72-0.35-4.92-3.78-0.09 0.09-4.29-0.29-0.48 1.93-2.15 2.71-2.44 1.36-1.36-2.91-1.65-0.59-1.07 1.26-2.92-2.43-1.65 0.39-1.66-0.11-3.89-1.6-0.25-0.87 2.25-0.48 0.29-2.81 4.58-2.52 0.98-3.48 4.19-2.23 1.07-1.26-0.58-0.68-2.43-0.32-2.18-2.89 0.04 0.12-3.47-1.43 0.01 6.65-5.04-6.64 0.66-1.02-3.44-2.9 0.07-0.08-2.56-0.06-5.4-0.27-1.32-0.41-0.9 1.2-0.9-0.23-0.83-0.06-4.83 0.53-1.52 6.77-8.4 1.45-1.95 1.36-1.47 0.97-0.68 2.03-0.49 2.28-0.34 1.55-0.49 2.23-1.57 0.49-0.97 2.71 0 0-2.54-0.46-22.21 33.98-0.93 0.33 22.06 12.05-0.1 0.32 49.36-0.22 0.05 0.56 46.16-11.45 0.07z" id="11132" name="Sherwood Hills">
  </path>
  <path d="M610.67 340.56l-1.4-0.91-2.07-0.31-10.32-0.01-3.65-0.5-4.5-0.33-3.2-0.07-13.26 0-8.66-0.08-1.81-0.06-2.53 0.22-8.79-0.22-5.79 0.13-4.79 0.74-2.48 0.51 0-0.28 0.03-1.26-3.35 0.01-0.03-22.92 7.29-7.66 0.82 0-0.33-1.16-0.16-5.22-0.93 0.04-0.72-2.85 0.99-3.9-9.19 0.11-0.06-1.2-0.57-1.94-1.56 0.07-0.06-1.4 0.23-2.86 1.62-3.95 0.48-5.97-1.4 0.06 1.32-4.59-0.28-0.43-0.84 0.58-0.81 0.22-0.14-0.53 1.09-0.34 1.74-1.58 0.61-0.96 0.14-0.72 0.19-3.96 0.27-1.28 0.61-1.09 2.46-2.65 0.87-2.76 0.17-1.37-1.06 0.04 0.8-2.14 0.39 0.14 0.65-1.86 3.07-1.68 1.4-0.18-0.08-4.76 1.34-2.09 0.14-4.74 0.84-2.63 0.1-1.49 0.83-1.68-0.67-3.59-0.99-2.1-0.4-2.2 0.39-2.37 0.01-2.22 2.32-3.23 1.38-2.65 1.67-1.98 0.54-2.07 0.28-4.61 1.36-4.95 0.96-1.66 1.24-4.6 1.93-2.62 1.75-3.69 0.99-2.5 0.84-3.55 1.38-2.92 3.67-3.7 1.07-0.97 9.7-20.1 4.81 10.09 5.51-0.01 1.55 2.41 0.2 8.35 10.59-0.18 1.19-0.05 0.54 9.05 0.06 5.99-0.66 7.23-0.8 5.36-0.47 2.21 1.28 0.16 0.9 0.68 0.19 0.7 1.74-0.1 0.03 0.86-0.6 0.05-0.28 1.54 0.12 1.44-0.76 0.02 0.18 2.58-0.09 3.6-0.63 0.01-0.31 1.79 0.86-0.01-0.03 2.41 0.4 4.15-1.09 0.03-0.21 1.28 0.17 1.59 1.09 0.04 0.38 4.28-1.31 3.02 0.19 1.23-1.04-0.09-0.75 1.79-0.83 8.7 0.01 3.68-2.06 5.67-1.13 2.46-0.93 5.67-1.87 8.88-2.35 0-0.08 7.75 0.3 10.86 0.01 8.55 2.21 4.33 1.7 4.23 0.67 2.29 0.84 0.2 0.96 2.67 0.5 1.11 0.52 2.3 1.01 1.5 0.26 0.13 3.8-0.11 2.85 5.86 2.42 5.33 0.95 2.4 0.48 1.53 1.57-0.01-0.1 3.88 0.27 0-0.02 2.62z" id="11133" name="Riverbottoms">
  </path>
 </g>
 <g id="points">
  <circle class="40.188188151946456|-111.73880323119027" cx="194.38" cy="940.45" id="0">
  </circle>
  <circle class="40.192955216293|-111.64765814172634" cx="637" cy="910.15" id="1">
  </circle>
  <circle class="40.20248934498609|-111.68238008056974" cx="468.38" cy="849.53" id="2">
  </circle>
  <circle class="40.21202347367918|-111.71276177705772" cx="320.84" cy="788.91" id="3">
  </circle>
  <circle class="40.22155760237227|-111.73880323119027" cx="194.38" cy="728.27" id="4">
  </circle>
  <circle class="40.22632466671882|-111.63029717230464" cx="721.31" cy="697.95" id="5">
  </circle>
  <circle class="40.23585879541191|-111.64765814172634" cx="637" cy="637.31" id="6">
  </circle>
  <circle class="40.245392924105|-111.66067886879262" cx="573.77" cy="576.65" id="7">
  </circle>
  <circle class="40.25492705279809|-111.66935935350347" cx="531.62" cy="515.99" id="8">
  </circle>
  <circle class="40.26446118149118|-111.67369959585889" cx="510.54" cy="455.31" id="9">
  </circle>
  <circle class="40.27399531018427|-111.67369959585889" cx="510.54" cy="394.63" id="10">
  </circle>
  <circle class="40.28352943887736|-111.66935935350347" cx="531.62" cy="333.94" id="11">
  </circle>
  <circle class="40.29306356757045|-111.66067886879262" cx="573.77" cy="273.25" id="12">
  </circle>
  <circle class="40.30259769626354|-111.64765814172634" cx="637" cy="212.54" id="13">
  </circle>
  <circle class="40.31213182495663|-111.63029717230464" cx="721.31" cy="151.82" id="14">
  </circle>
  <circle class="40.326433017996266|-111.73880323119027" cx="194.38" cy="60.74" id="15">
  </circle>
 </g>
 <g id="label_points">
  <circle class="University" cx="633.65" cy="542.31" id="11100">
  </circle>
  <circle class="Wasatch" cx="685.72" cy="533.94" id="11101">
  </circle>
  <circle class="Foothills" cx="699.41" cy="624.05" id="11102">
  </circle>
  <circle class="Fort Utah" cx="363.94" cy="637.22" id="11103">
  </circle>
  <circle class="Provost" cx="741.29" cy="705.54" id="11104">
  </circle>
  <circle class="Spring Creek" cx="776.38" cy="912.46" id="11105">
  </circle>
  <circle class="Provost South" cx="748.63" cy="793.92" id="11106">
  </circle>
  <circle class="Lakeview North" cx="343.43" cy="526.3" id="11107">
  </circle>
  <circle class="Indian Hills" cx="673.62" cy="377.8" id="11108">
  </circle>
  <circle class="North Park" cx="548.11" cy="575.83" id="11109">
  </circle>
  <circle class="Joaquin" cx="623.46" cy="617.26" id="11110">
  </circle>
  <circle class="East Bay" cx="618.38" cy="784.11" id="11111">
  </circle>
  <circle class="Rivergrove" cx="500.75" cy="562.25" id="11112">
  </circle>
  <circle class="Pleasant View" cx="622.61" cy="475.4" id="11113">
  </circle>
  <circle class="Riverside" cx="565.58" cy="378.64" id="11114">
  </circle>
  <circle class="Downtown" cx="576.71" cy="650.83" id="11115">
  </circle>
  <circle class="Rock Canyon" cx="687.43" cy="426.44" id="11116">
  </circle>
  <circle class="Timp" cx="553.13" cy="621.65" id="11117">
  </circle>
  <circle class="North Timpview" cx="689.07" cy="86.93" id="11118">
  </circle>
  <circle class="Grandview South" cx="445.3" cy="551.56" id="11119">
  </circle>
  <circle class="Grandview North" cx="454.63" cy="502.61" id="11120">
  </circle>
  <circle class="Oak Hills" cx="722.57" cy="510.71" id="11121">
  </circle>
  <circle class="Provo Bay" cx="322.31" cy="772.6" id="11122">
  </circle>
  <circle class="Sunset" cx="449.89" cy="795.49" id="11123">
  </circle>
  <circle class="Franklin" cx="517.85" cy="675.97" id="11124">
  </circle>
  <circle class="Franklin South" cx="543.46" cy="724.1" id="11125">
  </circle>
  <circle class="Lakewood" cx="527.59" cy="826.78" id="11126">
  </circle>
  <circle class="Dixon" cx="490.68" cy="629.19" id="11127">
  </circle>
  <circle class="Edgemont" cx="623.95" cy="383.95" id="11128">
  </circle>
  <circle class="Lakeview South" cx="375.22" cy="595.83" id="11129">
  </circle>
  <circle class="Maeser" cx="626.18" cy="676.64" id="11130">
  </circle>
  <circle class="Carterville" cx="541.06" cy="485.45" id="11131">
  </circle>
  <circle class="Sherwood Hills" cx="682.34" cy="276.07" id="11132">
  </circle>
  <circle class="Riverbottoms" cx="568.88" cy="253.63" id="11133">
  </circle>
 </g>
</svg>